<svg width="173" height="174" viewBox="0 0 173 174" fill="none" xmlns="http://www.w3.org/2000/svg">
<path d="M86.28 0.5C38.826 0.5 0 39.326 0 86.78C0 134.234 38.826 173.06 86.28 173.06C133.734 173.06 172.56 134.234 172.56 86.78C172.56 39.326 133.734 0.5 86.28 0.5ZM86.28 162.275C44.2185 162.275 10.785 128.841 10.785 86.78C10.785 60.896 23.727 37.169 45.297 23.1485C44.2185 29.6195 43.14 37.169 43.14 43.64C43.14 96.4865 86.28 139.626 139.126 140.705C125.106 154.725 106.771 162.275 86.28 162.275Z" fill="white"/>
</svg>
