<svg width="173" height="174" viewBox="0 0 173 174" fill="none" xmlns="http://www.w3.org/2000/svg">
<path d="M80.8875 11.285H91.6725V27.4625H80.8875V11.285Z" fill="black"/>
<path d="M145.598 81.3875H161.775V92.1725H145.598V81.3875Z" fill="black"/>
<path d="M80.8875 146.098H91.6725V162.275H80.8875V146.098Z" fill="black"/>
<path d="M10.785 81.3875H26.9625V92.1725H10.785V81.3875Z" fill="black"/>
<path d="M29.3887 37.6194L37.0149 29.9932L48.4541 41.4324L40.8279 49.0586L29.3887 37.6194Z" fill="black"/>
<path d="M124.026 41.38L135.465 29.9408L143.091 37.5669L131.652 49.0061L124.026 41.38Z" fill="black"/>
<path d="M124.04 132.166L131.666 124.54L143.105 135.979L135.479 143.605L124.04 132.166Z" fill="black"/>
<path d="M29.497 136.014L40.9291 124.527L48.5325 132.185L37.1004 143.617L29.497 136.014Z" fill="black"/>
<path d="M86.28 43.64C77.7477 43.64 69.407 46.1701 62.3127 50.9104C55.2184 55.6507 49.689 62.3882 46.4238 70.2711C43.1587 78.1539 42.3044 86.8279 43.9689 95.1962C45.6335 103.565 49.7422 111.251 55.7754 117.285C61.8086 123.318 69.4955 127.427 77.8638 129.091C86.2321 130.756 94.9062 129.901 102.789 126.636C110.672 123.371 117.409 117.842 122.15 110.747C126.89 103.653 129.42 95.3123 129.42 86.78C129.42 75.3386 124.875 64.3657 116.785 56.2754C108.694 48.1851 97.7214 43.64 86.28 43.64ZM86.28 119.135C77.6989 119.135 69.4693 115.726 63.4016 109.658C57.3338 103.591 53.925 95.3611 53.925 86.78C53.925 78.1989 57.3338 69.9693 63.4016 63.9016C69.4693 57.8338 77.6989 54.425 86.28 54.425V119.135Z" fill="black"/>
</svg>
