<svg width="50" height="56" viewBox="0 0 50 56" fill="none" xmlns="http://www.w3.org/2000/svg">
<circle cx="28" cy="44" r="2" fill="black"/>
<path d="M8.184 22.24C6.776 22.24 5.576 21.976 4.584 21.448C3.608 20.92 2.856 20.176 2.328 19.216C1.816 18.256 1.528 17.128 1.464 15.832C1.448 15.128 1.44 14.384 1.44 13.6C1.44 12.8 1.448 12.04 1.464 11.32C1.528 10.024 1.816 8.904 2.328 7.96C2.856 7.016 3.616 6.28 4.608 5.752C5.6 5.224 6.792 4.96 8.184 4.96C9.32 4.96 10.304 5.12 11.136 5.44C11.968 5.76 12.648 6.168 13.176 6.664C13.72 7.144 14.12 7.648 14.376 8.176C14.648 8.704 14.792 9.168 14.808 9.568C14.824 9.712 14.784 9.832 14.688 9.928C14.592 10.008 14.464 10.048 14.304 10.048H12.888C12.728 10.048 12.608 10.016 12.528 9.952C12.464 9.888 12.4 9.776 12.336 9.616C12.192 9.2 11.952 8.792 11.616 8.392C11.296 7.992 10.856 7.664 10.296 7.408C9.752 7.136 9.048 7 8.184 7C6.92 7 5.896 7.344 5.112 8.032C4.344 8.72 3.928 9.856 3.864 11.44C3.816 12.864 3.816 14.288 3.864 15.712C3.928 17.312 4.352 18.464 5.136 19.168C5.92 19.856 6.944 20.2 8.208 20.2C9.056 20.2 9.808 20.048 10.464 19.744C11.136 19.424 11.664 18.936 12.048 18.28C12.432 17.624 12.624 16.792 12.624 15.784V14.776H9.024C8.864 14.776 8.728 14.728 8.616 14.632C8.52 14.52 8.472 14.376 8.472 14.2V13.432C8.472 13.256 8.52 13.12 8.616 13.024C8.728 12.912 8.864 12.856 9.024 12.856H14.448C14.624 12.856 14.76 12.912 14.856 13.024C14.952 13.12 15 13.256 15 13.432V15.736C15 17.048 14.728 18.192 14.184 19.168C13.656 20.144 12.88 20.904 11.856 21.448C10.832 21.976 9.608 22.24 8.184 22.24ZM23.0799 22.24C21.4319 22.24 20.1199 21.736 19.1439 20.728C18.1679 19.704 17.6319 18.312 17.5359 16.552C17.5199 16.344 17.5119 16.08 17.5119 15.76C17.5119 15.424 17.5199 15.152 17.5359 14.944C17.5999 13.808 17.8639 12.816 18.3279 11.968C18.7919 11.104 19.4239 10.44 20.2239 9.976C21.0399 9.512 21.9919 9.28 23.0799 9.28C24.2959 9.28 25.3119 9.536 26.1279 10.048C26.9599 10.56 27.5919 11.288 28.0239 12.232C28.4559 13.176 28.6719 14.28 28.6719 15.544V15.952C28.6719 16.128 28.6159 16.264 28.5039 16.36C28.4079 16.456 28.2799 16.504 28.1199 16.504H19.8159C19.8159 16.52 19.8159 16.552 19.8159 16.6C19.8159 16.648 19.8159 16.688 19.8159 16.72C19.8479 17.376 19.9919 17.992 20.2479 18.568C20.5039 19.128 20.8719 19.584 21.3519 19.936C21.8319 20.288 22.4079 20.464 23.0799 20.464C23.6559 20.464 24.1359 20.376 24.5199 20.2C24.9039 20.024 25.2159 19.832 25.4559 19.624C25.6959 19.4 25.8559 19.232 25.9359 19.12C26.0799 18.912 26.1919 18.792 26.2719 18.76C26.3519 18.712 26.4799 18.688 26.6559 18.688H27.8079C27.9679 18.688 28.0959 18.736 28.1919 18.832C28.3039 18.912 28.3519 19.032 28.3359 19.192C28.3199 19.432 28.1919 19.728 27.9519 20.08C27.7119 20.416 27.3679 20.752 26.9199 21.088C26.4719 21.424 25.9279 21.704 25.2879 21.928C24.6479 22.136 23.9119 22.24 23.0799 22.24ZM19.8159 14.848H26.3919V14.776C26.3919 14.056 26.2559 13.416 25.9839 12.856C25.7279 12.296 25.3519 11.856 24.8559 11.536C24.3599 11.2 23.7679 11.032 23.0799 11.032C22.3919 11.032 21.7999 11.2 21.3039 11.536C20.8239 11.856 20.4559 12.296 20.1999 12.856C19.9439 13.416 19.8159 14.056 19.8159 14.776V14.848ZM36.3433 22C35.4473 22 34.7193 21.832 34.1593 21.496C33.5993 21.144 33.1913 20.656 32.9353 20.032C32.6793 19.392 32.5513 18.64 32.5513 17.776V11.44H30.6793C30.5193 11.44 30.3833 11.392 30.2713 11.296C30.1753 11.184 30.1273 11.048 30.1273 10.888V10.072C30.1273 9.912 30.1753 9.784 30.2713 9.688C30.3833 9.576 30.5193 9.52 30.6793 9.52H32.5513V5.512C32.5513 5.352 32.5993 5.224 32.6953 5.128C32.8073 5.016 32.9433 4.96 33.1033 4.96H34.2313C34.3913 4.96 34.5193 5.016 34.6153 5.128C34.7273 5.224 34.7833 5.352 34.7833 5.512V9.52H37.7593C37.9193 9.52 38.0473 9.576 38.1433 9.688C38.2553 9.784 38.3113 9.912 38.3113 10.072V10.888C38.3113 11.048 38.2553 11.184 38.1433 11.296C38.0473 11.392 37.9193 11.44 37.7593 11.44H34.7833V17.608C34.7833 18.36 34.9113 18.952 35.1673 19.384C35.4233 19.816 35.8793 20.032 36.5353 20.032H37.9993C38.1593 20.032 38.2873 20.088 38.3833 20.2C38.4953 20.296 38.5513 20.424 38.5513 20.584V21.448C38.5513 21.608 38.4953 21.744 38.3833 21.856C38.2873 21.952 38.1593 22 37.9993 22H36.3433ZM12.9628 50.24C12.1468 50.24 11.3708 50.144 10.6348 49.952C9.91481 49.744 9.26681 49.432 8.69081 49.016C8.13081 48.584 7.68281 48.048 7.34681 47.408C7.01081 46.768 6.82681 46.016 6.79481 45.152C6.79481 45.008 6.84281 44.888 6.93881 44.792C7.03481 44.68 7.16281 44.624 7.32281 44.624H8.61881C8.79481 44.624 8.93081 44.68 9.02681 44.792C9.13881 44.888 9.21081 45.016 9.24281 45.176C9.30681 45.896 9.51481 46.48 9.86681 46.928C10.2188 47.36 10.6668 47.68 11.2108 47.888C11.7548 48.096 12.3548 48.2 13.0108 48.2C14.2268 48.2 15.1548 47.8 15.7948 47C16.4348 46.2 16.7548 45.136 16.7548 43.808V35.288H8.23481C8.07481 35.288 7.93881 35.24 7.82681 35.144C7.73081 35.032 7.68281 34.896 7.68281 34.736V33.752C7.68281 33.592 7.73081 33.464 7.82681 33.368C7.93881 33.256 8.07481 33.2 8.23481 33.2H18.5788C18.7548 33.2 18.8908 33.256 18.9868 33.368C19.0988 33.464 19.1548 33.6 19.1548 33.776V43.856C19.1548 45.152 18.9068 46.28 18.4108 47.24C17.9148 48.2 17.2108 48.944 16.2988 49.472C15.3868 49.984 14.2748 50.24 12.9628 50.24ZM27.9818 50.24C26.7658 50.24 25.7498 50.008 24.9338 49.544C24.1178 49.08 23.4938 48.44 23.0618 47.624C22.6298 46.792 22.3898 45.848 22.3418 44.792C22.3258 44.52 22.3178 44.176 22.3178 43.76C22.3178 43.328 22.3258 42.984 22.3418 42.728C22.3898 41.656 22.6298 40.712 23.0618 39.896C23.5098 39.08 24.1418 38.44 24.9578 37.976C25.7738 37.512 26.7818 37.28 27.9818 37.28C29.1818 37.28 30.1898 37.512 31.0058 37.976C31.8218 38.44 32.4458 39.08 32.8778 39.896C33.3258 40.712 33.5738 41.656 33.6218 42.728C33.6378 42.984 33.6458 43.328 33.6458 43.76C33.6458 44.176 33.6378 44.52 33.6218 44.792C33.5738 45.848 33.3338 46.792 32.9018 47.624C32.4698 48.44 31.8458 49.08 31.0298 49.544C30.2138 50.008 29.1978 50.24 27.9818 50.24ZM27.9818 48.392C28.9738 48.392 29.7658 48.08 30.3578 47.456C30.9498 46.816 31.2698 45.888 31.3178 44.672C31.3338 44.432 31.3418 44.128 31.3418 43.76C31.3418 43.392 31.3338 43.088 31.3178 42.848C31.2698 41.632 30.9498 40.712 30.3578 40.088C29.7658 39.448 28.9738 39.128 27.9818 39.128C26.9898 39.128 26.1898 39.448 25.5818 40.088C24.9898 40.712 24.6778 41.632 24.6458 42.848C24.6298 43.088 24.6217 43.392 24.6217 43.76C24.6217 44.128 24.6298 44.432 24.6458 44.672C24.6778 45.888 24.9898 46.816 25.5818 47.456C26.1898 48.08 26.9898 48.392 27.9818 48.392ZM42.819 50.24C41.859 50.24 41.059 50.072 40.419 49.736C39.779 49.384 39.267 48.952 38.883 48.44V49.448C38.883 49.608 38.827 49.744 38.715 49.856C38.619 49.952 38.491 50 38.331 50H37.227C37.067 50 36.931 49.952 36.819 49.856C36.723 49.744 36.675 49.608 36.675 49.448V33.512C36.675 33.352 36.723 33.224 36.819 33.128C36.931 33.016 37.067 32.96 37.227 32.96H38.379C38.555 32.96 38.691 33.016 38.787 33.128C38.883 33.224 38.931 33.352 38.931 33.512V39.032C39.331 38.536 39.843 38.12 40.467 37.784C41.107 37.448 41.891 37.28 42.819 37.28C43.715 37.28 44.475 37.44 45.099 37.76C45.739 38.064 46.259 38.488 46.659 39.032C47.075 39.576 47.387 40.192 47.595 40.88C47.803 41.568 47.915 42.288 47.931 43.04C47.947 43.296 47.955 43.536 47.955 43.76C47.955 43.984 47.947 44.224 47.931 44.48C47.915 45.248 47.803 45.976 47.595 46.664C47.387 47.352 47.075 47.968 46.659 48.512C46.259 49.04 45.739 49.464 45.099 49.784C44.475 50.088 43.715 50.24 42.819 50.24ZM42.315 48.296C43.147 48.296 43.795 48.12 44.259 47.768C44.739 47.4 45.083 46.928 45.291 46.352C45.499 45.76 45.619 45.128 45.651 44.456C45.667 43.992 45.667 43.528 45.651 43.064C45.619 42.392 45.499 41.768 45.291 41.192C45.083 40.6 44.739 40.128 44.259 39.776C43.795 39.408 43.147 39.224 42.315 39.224C41.563 39.224 40.939 39.4 40.443 39.752C39.947 40.104 39.571 40.552 39.315 41.096C39.075 41.64 38.947 42.192 38.931 42.752C38.915 43.008 38.907 43.32 38.907 43.688C38.907 44.04 38.915 44.344 38.931 44.6C38.963 45.192 39.091 45.776 39.315 46.352C39.555 46.912 39.915 47.376 40.395 47.744C40.891 48.112 41.531 48.296 42.315 48.296Z" fill="black"/>
<line x1="19" y1="28" x2="44" y2="28" stroke="black" stroke-width="2"/>
</svg>
