<svg viewBox="0 0 1024 1054.968" xmlns="http://www.w3.org/2000/svg"><path d="m512 421.158c61.952 0 112.175 50.222 112.175 112.175s-50.222 112.175-112.175 112.175c-61.952 0-112.175-50.222-112.175-112.175.08-61.92 50.254-112.095 112.167-112.175zm0 177.804c36.246 0 65.63-29.383 65.63-65.63s-29.384-65.628-65.63-65.628-65.63 29.383-65.63 65.63c.054 36.224 29.405 65.575 65.625 65.628zm156.393 156.393h-46.545c0-60.667-49.18-109.847-109.847-109.847s-109.846 49.18-109.846 109.847h-46.545c0-86.373 70.018-156.393 156.392-156.393s156.393 70.02 156.393 156.393zm243.432-734.022c61.952 0 112.175 50.222 112.175 112.175s-50.222 112.175-112.175 112.175c-61.952 0-112.175-50.222-112.175-112.175.08-61.92 50.254-112.095 112.167-112.175zm0 177.804c36.246 0 65.63-29.383 65.63-65.63s-29.385-65.627-65.631-65.627-65.63 29.382-65.63 65.628c.054 36.225 29.405 65.576 65.625 65.63h.005zm-799.65 621.847c61.952 0 112.175 50.222 112.175 112.175s-50.222 112.174-112.175 112.174c-61.952.001-112.175-50.221-112.175-112.173.08-61.92 50.254-112.096 112.167-112.176h.008zm0 177.804c36.246 0 65.63-29.383 65.63-65.63s-29.384-65.628-65.63-65.628-65.63 29.383-65.63 65.63c.054 36.224 29.405 65.575 65.625 65.628zm777.31-222.488c74.29 0 134.515 60.225 134.515 134.516s-60.225 134.516-134.516 134.516c-74.29 0-134.516-60.225-134.516-134.516.08-74.26 60.257-134.437 134.51-134.516zm0 222.488c48.584 0 87.97-39.386 87.97-87.97s-39.386-87.972-87.97-87.972c-48.586 0-87.972 39.386-87.972 87.97.053 48.565 39.407 87.92 87.966 87.972h.004zm-754.971-977.455c74.292 0 134.517 60.225 134.517 134.516s-60.225 134.515-134.516 134.515c-74.289.001-134.515-60.224-134.515-134.514.08-74.26 60.257-134.44 134.51-134.518h.007zm0 222.487c48.586 0 87.972-39.386 87.972-87.97s-39.386-87.972-87.97-87.972c-48.586 0-87.972 39.386-87.972 87.97.053 48.565 39.407 87.92 87.966 87.972h.006zm56.508 643.445-32.908-32.908 148.946-148.945 32.908 32.908zm525.964-525.965-32.908-32.907 148.945-148.945 32.908 32.908zm-205.546 465.27c-160.4-.01-290.428-130.042-290.428-290.445 0-160.408 130.036-290.444 290.444-290.444 80.19 0 152.787 32.498 205.345 85.04 52.338 51.67 84.855 123.313 85.178 202.55v.06c.008.79.012 1.72.012 2.654 0 160.473-130.08 290.564-290.547 290.583h-.002zm0-534.39c-134.655.06-243.792 109.235-243.792 243.9 0 134.7 109.197 243.897 243.898 243.897s243.898-109.197 243.898-243.897c0-.868-.005-1.735-.014-2.6v.132c-1.394-133.636-110.05-241.43-243.885-241.43h-.11.005zm282.905 556.452-110.313-110.312 32.954-32.955 110.314 110.313zm-487.33-487.33-110.315-110.315 32.955-32.954 110.313 110.313z"/></svg>